<svg width="24" height="34" viewBox="0 0 24 34" fill="none" xmlns="http://www.w3.org/2000/svg">
<path d="M11.5 14C10.1193 14 9 12.8807 9 11.5C9 10.1193 10.1193 9 11.5 9C12.8807 9 14 10.1193 14 11.5C14 12.8807 12.8807 14 11.5 14Z" fill="#FBFAFF"/>
<path d="M11.5625 0C17.9378 0 23.125 5.09512 23.125 11.3555C23.125 14.3368 21.8018 18.3016 19.1923 23.1399C17.0966 27.0245 14.6721 30.5373 13.4111 32.2852C13.198 32.5838 12.9194 32.8267 12.5978 32.9941C12.2763 33.1615 11.9208 33.2488 11.5603 33.2488C11.1998 33.2488 10.8444 33.1615 10.5229 32.9941C10.2013 32.8267 9.9227 32.5838 9.70961 32.2852C8.45074 30.5373 6.02406 27.0245 3.92836 23.1399C1.32318 18.3031 0 14.3383 0 11.3555C0 5.09512 5.18723 0 11.5625 0ZM11.5625 16.625C12.4772 16.625 13.3714 16.3464 14.132 15.8245C14.8926 15.3025 15.4854 14.5607 15.8354 13.6927C16.1855 12.8248 16.2771 11.8697 16.0986 10.9483C15.9202 10.0269 15.4797 9.18054 14.8329 8.51624C14.1861 7.85194 13.362 7.39955 12.4648 7.21627C11.5676 7.03299 10.6377 7.12706 9.79259 7.48657C8.94748 7.84609 8.22515 8.45491 7.71695 9.23604C7.20875 10.0172 6.9375 10.9355 6.9375 11.875C6.93884 13.1344 7.42654 14.3417 8.29361 15.2322C9.16068 16.1227 10.3363 16.6236 11.5625 16.625Z" fill="#FBFAFF"/>
</svg>
