<svg width="26" height="26" viewBox="0 0 26 26" fill="none" xmlns="http://www.w3.org/2000/svg">
<path d="M21.5312 4.0625H4.46875C3.71479 4.06331 2.99194 4.36317 2.45881 4.89631C1.92567 5.42944 1.62581 6.15229 1.625 6.90625V19.0938C1.62581 19.8477 1.92567 20.5706 2.45881 21.1037C2.99194 21.6368 3.71479 21.9367 4.46875 21.9375H21.5312C22.2852 21.9367 23.0081 21.6368 23.5412 21.1037C24.0743 20.5706 24.3742 19.8477 24.375 19.0938V6.90625C24.3742 6.15229 24.0743 5.42944 23.5412 4.89631C23.0081 4.36317 22.2852 4.06331 21.5312 4.0625ZM20.8112 8.76637L13.4987 14.4539C13.3561 14.5647 13.1806 14.6249 13 14.6249C12.8194 14.6249 12.6439 14.5647 12.5013 14.4539L5.18883 8.76637C5.10291 8.70149 5.03075 8.62018 4.97653 8.52717C4.92231 8.43415 4.88712 8.33129 4.87299 8.22456C4.85887 8.11783 4.8661 8.00936 4.89426 7.90545C4.92243 7.80153 4.97096 7.70425 5.03704 7.61926C5.10313 7.53427 5.18544 7.46325 5.27921 7.41035C5.37297 7.35744 5.47632 7.3237 5.58324 7.31108C5.69016 7.29846 5.79852 7.30722 5.90202 7.33684C6.00553 7.36646 6.10212 7.41636 6.18617 7.48363L13 12.7832L19.8138 7.48363C19.9842 7.35496 20.1984 7.29853 20.4101 7.32654C20.6217 7.35455 20.8139 7.46474 20.9449 7.6333C21.076 7.80185 21.1354 8.01522 21.1104 8.22725C21.0853 8.43929 20.9779 8.63296 20.8112 8.76637Z" fill="#FBFAFF"/>
</svg>
