<svg width="26" height="26" viewBox="0 0 26 26" fill="none" xmlns="http://www.w3.org/2000/svg">
<path d="M19.8555 24.375C18.8642 24.375 17.4718 24.0165 15.3867 22.8516C12.8512 21.4297 10.89 20.117 8.36823 17.6018C5.93682 15.1719 4.75362 13.5987 3.09764 10.5854C1.22686 7.18302 1.54577 5.39959 1.90225 4.63736C2.32678 3.72635 2.95343 3.18146 3.76339 2.64064C4.22344 2.33922 4.71029 2.08084 5.21776 1.86877C5.26854 1.84693 5.31577 1.82611 5.35792 1.80732C5.60928 1.69408 5.99014 1.52295 6.47257 1.70576C6.79452 1.82662 7.08194 2.07392 7.53186 2.51826C8.45456 3.42826 9.71546 5.45494 10.1806 6.45025C10.4929 7.12107 10.6996 7.56388 10.7001 8.06052C10.7001 8.64197 10.4076 9.09037 10.0526 9.57431C9.98612 9.66521 9.9201 9.75205 9.85612 9.83634C9.46967 10.3442 9.38487 10.4909 9.44073 10.7529C9.55397 11.2795 10.3985 12.8472 11.7863 14.232C13.1742 15.6168 14.6966 16.4079 15.2252 16.5207C15.4984 16.5791 15.6482 16.4907 16.1723 16.0906C16.2474 16.0332 16.3246 15.9738 16.4054 15.9144C16.9467 15.5117 17.3743 15.2268 17.942 15.2268H17.9451C18.4392 15.2268 18.8622 15.4411 19.563 15.7945C20.477 16.2556 22.5646 17.5003 23.4802 18.424C23.9256 18.8729 24.1739 19.1593 24.2953 19.4807C24.4781 19.9647 24.3059 20.344 24.1937 20.5979C24.1749 20.6401 24.1541 20.6863 24.1323 20.7376C23.9185 21.2441 23.6586 21.7299 23.3558 22.1889C22.816 22.9963 22.2691 23.6214 21.356 24.0465C20.8872 24.2682 20.3741 24.3806 19.8555 24.375Z" fill="#FBFAFF"/>
</svg>
